# xmcd
#
# Track frame offsets:
#	150
#	21833
#	34570
#	42481
#	53004
#	72490
#	88504
#	95536
#	109113
#	127285
#	146542
#	164664
#
# Disc length: 2219 seconds
#
# Revision: 0
# Processed by: cddbd v1.5.2PL0 Copyright (c) Steve Scherf et al.
# Submitted via: dBpowerAMP V4.0
#
DISCID=aa08a90c
DTITLE=Per Christian Frost - Instrumentals
DYEAR=2007
DGENRE=Pop
TTITLE0=Out Of Nowhere
TTITLE1=Motherly Love
TTITLE2=The Calimba Cave
TTITLE3=Up Above My House
TTITLE4=Death Of The Dragon
TTITLE5=Sailin' On A Seashell
TTITLE6=The New Chapter
TTITLE7=The Spooky Country Waltz
TTITLE8=Your Presence
TTITLE9=Downhill
TTITLE10=The Lost Cowboy Jack
TTITLE11=DATA
EXTD=
EXTT0=
EXTT1=
EXTT2=
EXTT3=
EXTT4=
EXTT5=
EXTT6=
EXTT7=
EXTT8=
EXTT9=
EXTT10=
EXTT11=
PLAYORDER=
